-----------------------------------------------------------------------------------
             Cruel Intentions 1999 720p BRRiP XviD AC3 multisubs nekanilla
___________________________________________________________________________________

---------------------------------------INFO----------------------------------------

Movie name: Cruel Intentions
Country and year of production: USA / 1999
Speech language / subtitle: English / Greek, English, Spanish, Swedish, Dutch, Finnish, Romanian, Slovenian, Turkish SRT
Genre: Drama | Romance | Thriller 
Movie Length: 97 minutes
Writer: Roger Kumble, Choderlos de Laclos
Directed by: Roger Kumble 
___________________________________________________________________________________

---------------------------------------PLOT----------------------------------------

A pair of unscrupulous siblings star in a sexy tale of seduction, revenge and conquest. After cleverly seducing and ruining the reputation of an unsuspecting classmate, the sparks fly when Kathryn poses the ultimate challenge to her insatiable stepbrother Sebastian: deflower the Headmaster's beautiful, virgin daughter Annette. If he fails, Kathryn gets his 1956 jaguar convertible, but if he succeeds, Sebastain gets to possess and bed Kathryn. The stakes are high, but for Sebastian, the payoff is feverishly irresistible and before the summer's over, no one will escape their relentless game of cat and mouse . . . until one of them is bitten by the most unlikely sensation of all . . . love.

Written by Robert Lynch

___________________________________________________________________________________

---------------------------------------CAST----------------------------------------

Sarah Michelle Gellar as Kathryn Merteuil
Ryan Phillippe as Sebastian Valmont
Reese Witherspoon as Annette Hargrove
Selma Blair as Cecile Caldwell
Louise Fletcher as Helen Rosemond
Swoosie Kurtz as Dr. Regina Greenbaum
Sean Patrick Thomas as Ronald Clifford
Christine Baranski as Bunny Caldwell
Joshua Jackson as Blaine Tuttle
Eric Mabius as Greg McConnell
Tara Reid as Marci Greenbaum
Charlie O'Connell as Court Reynolds
Herta Ware as Mrs. Sugarman
___________________________________________________________________________________

------------------------------------MEDIA INFO-------------------------------------
     
                                 Includes sample
General
Complete name                  : Cruel Intentions 1999 720p BRRiP XviD AC3.avi
Format                         : AVI
Format/Info                    : Audio Video Interleave
Format profile                 : OpenDML
Format settings                : rec
File size                      : 2.90 GiB
Duration                       : 1h 37mn
Overall bit rate               : 4 258 Kbps
Writing application            : AVI-Mux GUI 1.17.8.3, Feb 16 201019:42:50

Video
ID                             : 0
Format                         : MPEG-4 Visual
Format profile                 : Advanced Simple@L5
Format settings, BVOP          : 2
Format settings, QPel          : No
Format settings, GMC           : No warppoints
Format settings, Matrix        : Default (H.263)
Codec ID                       : XVID
Codec ID/Hint                  : XviD
Duration                       : 1h 37mn
Bit rate                       : 3 804 Kbps
Width                          : 1 280 pixels
Height                         : 688 pixels
Display aspect ratio           : 1.85:1
Frame rate                     : 23.976 fps
Color space                    : YUV
Chroma subsampling             : 4:2:0
Bit depth                      : 8 bits
Scan type                      : Progressive
Compression mode               : Lossy
Bits/(Pixel*Frame)             : 0.180
Stream size                    : 2.59 GiB (89%)
Writing library                : XviD 1.2.1 (UTC 2008-12-04)

Audio
ID                             : 1
Format                         : AC-3
Format/Info                    : Audio Coding 3
Mode extension                 : CM (complete main)
Codec ID                       : 2000
Duration                       : 1h 37mn
Bit rate mode                  : Constant
Bit rate                       : 448 Kbps
Channel(s)                     : 6 channels
Channel positions              : Front: L C R, Side: L R, LFE
Sampling rate                  : 48.0 KHz
Bit depth                      : 16 bits
Compression mode               : Lossy
Stream size                    : 312 MiB (11%)
Alignment                      : Aligned on interleaves
Interleave, duration           : 64 ms (1.53 video frames)
Interleave, preload duration   : 192 ms
Title                          : Cruel.Intentions.audio
___________________________________________________________________________________

___________________________________________________________________________________

-----------------------------------SCREENSHOTS-------------------------------------
                          http://i.imgur.com/DY6VGkD.jpg
                          http://i.imgur.com/3CqOYd1.png
                          http://i.imgur.com/ZeprVVJ.png
                          http://i.imgur.com/pga210s.png
___________________________________________________________________________________

                                Source : Cruel.Intentions.1999.BluRay.1080p.
LPCM.h264.Remux-HiFi

                                Rip   : By   nekanilla	